<svg width="51" height="51" viewBox="0 0 51 51" fill="none" xmlns="http://www.w3.org/2000/svg">
<path d="M19.125 31.875C13.4513 31.875 2.125 34.7225 2.125 40.375V44.625H36.125V40.375C36.125 34.7225 24.7987 31.875 19.125 31.875Z" fill="#5600E8"/>
<path d="M46.9625 14.535C46.9838 14.3013 47.005 14.0675 47.005 13.8125C47.005 13.5575 46.9838 13.3237 46.9413 13.09L48.5138 11.8575C48.6625 11.7512 48.6838 11.5388 48.5988 11.39L47.1113 8.81875C47.0263 8.64875 46.8138 8.60625 46.665 8.64875L44.8375 9.3925C44.455 9.095 44.03 8.86125 43.5838 8.67L43.3075 6.69375C43.265 6.5025 43.1163 6.375 42.925 6.375H39.95C39.7588 6.375 39.61 6.5025 39.5888 6.69375L39.3125 8.67C38.8663 8.86125 38.4413 9.11625 38.0588 9.3925L36.21 8.64875C36.04 8.585 35.8488 8.64875 35.7638 8.81875L34.2763 11.39C34.1913 11.56 34.2125 11.7512 34.3613 11.8575L35.9338 13.09C35.8913 13.3237 35.87 13.5788 35.87 13.8125C35.87 14.0462 35.8913 14.3013 35.9338 14.535L34.3613 15.7675C34.2125 15.8737 34.1913 16.0862 34.2763 16.235L35.7638 18.8063C35.8488 18.9763 36.0613 19.0188 36.21 18.9763L38.0588 18.2325C38.4413 18.53 38.8663 18.7638 39.3125 18.955L39.5888 20.9313C39.61 21.1225 39.7588 21.25 39.95 21.25H42.925C43.1163 21.25 43.265 21.1225 43.2863 20.9313L43.5625 18.955C44.0088 18.7638 44.4338 18.5087 44.8163 18.2325L46.665 18.9763C46.835 19.04 47.0263 18.9763 47.1113 18.8063L48.5988 16.235C48.6838 16.065 48.6625 15.8737 48.5138 15.7675L46.9625 14.535ZM41.4375 16.4688C39.9713 16.4688 38.7813 15.2788 38.7813 13.8125C38.7813 12.3463 39.9713 11.1562 41.4375 11.1562C42.9038 11.1562 44.0938 12.3463 44.0938 13.8125C44.0938 15.2788 42.9038 16.4688 41.4375 16.4688Z" fill="#5600E8"/>
<path d="M42.33 24.82L41.2675 22.9713C41.2037 22.8438 41.055 22.8012 40.9487 22.8438L39.6312 23.375C39.355 23.1625 39.0575 22.9925 38.7387 22.865L38.5475 21.4625C38.505 21.335 38.3775 21.25 38.25 21.25H36.125C35.9975 21.25 35.8912 21.335 35.87 21.4837L35.6787 22.8863C35.36 23.0138 35.0625 23.205 34.7862 23.3963L33.4687 22.865C33.3412 22.8225 33.2137 22.865 33.15 22.9925L32.0875 24.8412C32.0237 24.9687 32.045 25.0963 32.1512 25.1813L33.2775 26.0525C33.2562 26.2225 33.235 26.3925 33.235 26.5625C33.235 26.7325 33.2562 26.9237 33.2775 27.0725L32.1512 27.9437C32.045 28.0287 32.0237 28.1775 32.0875 28.2838L33.15 30.1325C33.2137 30.26 33.3625 30.3025 33.4687 30.26L34.7862 29.7287C35.0625 29.9412 35.36 30.1112 35.6787 30.2387L35.87 31.6413C35.8912 31.79 35.9975 31.875 36.125 31.875H38.25C38.3775 31.875 38.505 31.79 38.505 31.6413L38.6962 30.2387C39.015 30.1112 39.3125 29.92 39.5887 29.7287L40.9062 30.26C41.0337 30.3025 41.1612 30.26 41.225 30.1325L42.2875 28.2838C42.3512 28.1563 42.33 28.0287 42.2238 27.9437L41.1187 27.0725C41.14 26.9025 41.1613 26.7325 41.1613 26.5625C41.1613 26.3925 41.14 26.2013 41.1187 26.0525L42.245 25.1813C42.3512 25.0963 42.3725 24.9475 42.33 24.82ZM37.1875 28.3263C36.21 28.3263 35.4237 27.5188 35.4237 26.5625C35.4237 25.585 36.2312 24.7988 37.1875 24.7988C38.1437 24.7988 38.9512 25.6062 38.9512 26.5625C38.9512 27.54 38.165 28.3263 37.1875 28.3263Z" fill="#5600E8"/>
<path d="M10.0725 19.125H28.1988C28.7725 19.125 29.24 18.6575 29.24 18.0838V18.0412C29.24 17.4675 28.7725 17 28.1988 17H27.625C27.625 13.855 25.9037 11.1563 23.375 9.66875V11.6875C23.375 12.2825 22.9075 12.75 22.3125 12.75C21.7175 12.75 21.25 12.2825 21.25 11.6875V8.7975C20.57 8.6275 19.8687 8.5 19.125 8.5C18.3813 8.5 17.68 8.6275 17 8.7975V11.6875C17 12.2825 16.5325 12.75 15.9375 12.75C15.3425 12.75 14.875 12.2825 14.875 11.6875V9.66875C12.3462 11.1563 10.625 13.855 10.625 17H10.0725C9.49875 17 9.03125 17.4675 9.03125 18.0412V18.105C9.03125 18.6575 9.49875 19.125 10.0725 19.125Z" fill="#5600E8"/>
<path d="M19.125 27.625C23.0775 27.625 26.3712 24.905 27.3275 21.25H10.9225C11.8787 24.905 15.1725 27.625 19.125 27.625Z" fill="#5600E8"/>
</svg>
