<svg width="38" height="38" viewBox="0 0 38 38" fill="none" xmlns="http://www.w3.org/2000/svg">
<circle cx="19" cy="19.0001" r="15.8333" fill="#0077B5"/>
<path fill-rule="evenodd" clip-rule="evenodd" d="M14.8634 11.3081C14.8634 12.2938 14.1129 13.0915 12.9392 13.0915C11.8112 13.0915 11.0607 12.2938 11.0839 11.3081C11.0607 10.2745 11.8112 9.5 12.9616 9.5C14.1128 9.5 14.8409 10.2745 14.8634 11.3081ZM11.1783 25.9818V14.5003H14.7465V25.981H11.1783V25.9818Z" fill="#383838"/>
<path fill-rule="evenodd" clip-rule="evenodd" d="M17.6066 18.1644C17.6066 16.7323 17.5594 15.5115 17.5122 14.5018H20.6116L20.7763 16.0747H20.8467C21.3164 15.3467 22.4901 14.2441 24.3918 14.2441C26.7392 14.2441 28.5001 15.7938 28.5001 19.1733V25.9832H24.9318V19.6205C24.9318 18.1405 24.4157 17.1315 23.1244 17.1315C22.138 17.1315 21.5515 17.8124 21.3171 18.4693C21.2227 18.7045 21.1763 19.0325 21.1763 19.3621V25.9832H17.608V18.1644H17.6066Z" fill="#383838"/>
</svg>
