<svg width="51" height="51" viewBox="0 0 51 51" fill="none" xmlns="http://www.w3.org/2000/svg">
<path fill-rule="evenodd" clip-rule="evenodd" d="M35.4237 27.9011C38.335 29.8774 40.375 32.5549 40.375 36.1249V42.4999H48.875V36.1249C48.875 31.4924 41.2887 28.7511 35.4237 27.9011Z" fill="#5600E8"/>
<path d="M19.125 25.5001C23.8194 25.5001 27.625 21.6945 27.625 17.0001C27.625 12.3057 23.8194 8.50012 19.125 8.50012C14.4306 8.50012 10.625 12.3057 10.625 17.0001C10.625 21.6945 14.4306 25.5001 19.125 25.5001Z" fill="#5600E8"/>
<path fill-rule="evenodd" clip-rule="evenodd" d="M31.875 25.5001C36.5712 25.5001 40.375 21.6964 40.375 17.0001C40.375 12.3039 36.5712 8.50012 31.875 8.50012C30.8762 8.50012 29.9412 8.71262 29.0487 9.01012C30.8125 11.1989 31.875 13.9826 31.875 17.0001C31.875 20.0176 30.8125 22.8014 29.0487 24.9901C29.9412 25.2876 30.8762 25.5001 31.875 25.5001Z" fill="#5600E8"/>
<path fill-rule="evenodd" clip-rule="evenodd" d="M19.125 27.6251C13.4513 27.6251 2.125 30.4726 2.125 36.1251V42.5001H36.125V36.1251C36.125 30.4726 24.7987 27.6251 19.125 27.6251Z" fill="#5600E8"/>
</svg>
