<svg width="51" height="51" viewBox="0 0 51 51" fill="none" xmlns="http://www.w3.org/2000/svg">
<path d="M32.9375 23.375C34.6979 23.375 36.125 21.9479 36.125 20.1875C36.125 18.4271 34.6979 17 32.9375 17C31.1771 17 29.75 18.4271 29.75 20.1875C29.75 21.9479 31.1771 23.375 32.9375 23.375Z" fill="#5600E8"/>
<path d="M18.0625 23.375C19.8229 23.375 21.25 21.9479 21.25 20.1875C21.25 18.4271 19.8229 17 18.0625 17C16.3021 17 14.875 18.4271 14.875 20.1875C14.875 21.9479 16.3021 23.375 18.0625 23.375Z" fill="#5600E8"/>
<path d="M25.4787 4.25C13.7487 4.25 4.25 13.77 4.25 25.5C4.25 37.23 13.7487 46.75 25.4787 46.75C37.23 46.75 46.75 37.23 46.75 25.5C46.75 13.77 37.23 4.25 25.4787 4.25ZM25.5 42.5C16.1075 42.5 8.5 34.8925 8.5 25.5C8.5 16.1075 16.1075 8.5 25.5 8.5C34.8925 8.5 42.5 16.1075 42.5 25.5C42.5 34.8925 34.8925 42.5 25.5 42.5ZM14.875 29.75C16.5325 34.7225 20.655 38.25 25.5 38.25C30.345 38.25 34.4675 34.7225 36.125 29.75H14.875Z" fill="#5600E8"/>
</svg>
