<svg width="38" height="38" viewBox="0 0 38 38" fill="none" xmlns="http://www.w3.org/2000/svg">
<circle cx="19" cy="19.0001" r="15.8333" fill="#1DA1F2"/>
<path fill-rule="evenodd" clip-rule="evenodd" d="M28.5 12.9109C27.8015 13.2212 27.0498 13.4302 26.2613 13.5246C27.0662 13.042 27.6843 12.2783 27.975 11.3682C27.2227 11.8153 26.3873 12.1389 25.5001 12.3144C24.7889 11.557 23.775 11.0833 22.6547 11.0833C20.5022 11.0833 18.7568 12.8286 18.7568 14.9812C18.7568 15.2864 18.7916 15.5841 18.8581 15.8697C15.6182 15.7075 12.7463 14.1553 10.8236 11.797C10.4879 12.3726 10.296 13.042 10.296 13.7564C10.296 15.1085 10.9832 16.3016 12.03 17.0007C11.3904 16.9805 10.79 16.805 10.2637 16.5131V16.5619C10.2637 18.451 11.6082 20.026 13.3903 20.385C13.0635 20.4737 12.719 20.5218 12.3637 20.5218C12.1123 20.5218 11.8679 20.4971 11.6298 20.4515C12.1256 21.9999 13.5657 23.1272 15.2712 23.1588C13.9375 24.2038 12.2567 24.8276 10.4303 24.8276C10.1149 24.8276 9.80461 24.8092 9.5 24.7725C11.2251 25.8782 13.2738 26.5242 15.4751 26.5242C22.6446 26.5242 26.5653 20.5845 26.5653 15.434C26.5653 15.2649 26.5621 15.0964 26.5539 14.9299C27.3164 14.3789 27.9775 13.6924 28.5 12.9109Z" fill="#383838"/>
</svg>
