<?xml version="1.0" encoding="utf-8"?>
<!-- Generator: Adobe Illustrator 24.0.1, SVG Export Plug-In . SVG Version: 6.00 Build 0)  -->
<svg version="1.1" id="Camada_1" xmlns="http://www.w3.org/2000/svg" xmlns:xlink="http://www.w3.org/1999/xlink" x="0px" y="0px"
	 viewBox="0 0 204.8 46.7" style="enable-background:new 0 0 204.8 46.7;" xml:space="preserve">
<style type="text/css">
	.st0{fill:#E90006;stroke:#000000;stroke-miterlimit:10;}
	.st1{fill:#DF0006;}
	.st2{fill:#FFFFFF;}
	.st3{font-family:'Montserrat-SemiBoldItalic';}
	.st4{font-size:21px;}
	.st5{font-family:'Montserrat-BoldItalic';}
	.st6{font-size:24px;}
</style>
<g>
	<g>
		<path class="st0" d="M41,20.8H17v16.5c0,0,7.8,6.9,24,6.9s24-6.9,24-6.9V20.8H41z"/>
	</g>
	<g>
		<path d="M76,33.4c0-0.6-0.3-1.1-0.8-1.3V16.6h-1.4v15.5c-0.5,0.3-0.8,0.7-0.8,1.3c0,0.4,0.2,0.7,0.4,1v6.9h2.2v-6.9
			C75.9,34.1,76,33.8,76,33.4z"/>
	</g>
	<g>
		<polygon class="st1" points="41.1,1.4 41.1,1.3 41,1.3 40.9,1.3 40.9,1.4 1.4,16.6 40.9,31.8 40.9,31.9 41,31.9 41.1,31.9 
			41.1,31.8 80.6,16.6 		"/>
		<path d="M40.9,32.2c-0.1,0-0.1,0-0.2-0.1c0,0-0.1-0.1-0.1-0.1L1.3,16.9c-0.1-0.1-0.2-0.2-0.2-0.3s0.1-0.3,0.2-0.3L40.7,1.1
			c0,0,0.1-0.1,0.1-0.1C40.8,1,40.9,1,41,1c0.1,0,0.2,0,0.3,0c0,0,0.1,0.1,0.1,0.1l39.4,15.2c0.1,0,0.2,0.2,0.2,0.3
			c0,0.1-0.1,0.3-0.2,0.3L41.4,32.1c0,0-0.1,0.1-0.1,0.1C41.2,32.2,41.1,32.2,40.9,32.2C41,32.2,41,32.2,40.9,32.2z M2.3,16.6
			L41,31.5l38.7-14.9L41,1.7L2.3,16.6z"/>
	</g>
</g>
<text transform="matrix(1 0 0 1 85.5625 21.1038)" class="st2 st3 st4">Faculdade </text>
<text transform="matrix(1 0 0 1 109.2813 42.5606)" class="st2 st5 st6">Varsi</text>
</svg>
